HIERARCHY
ROOT hip
{
  OFFSET 0 0 0
  CHANNELS 6 Xposition Yposition Zposition Zrotation Yrotation Xrotation
  JOINT abdomen
  {
    OFFSET 0 20.6881 -0.73152
    CHANNELS 3 Zrotation Xrotation Yrotation
    JOINT chest
    {
      OFFSET 0 11.7043 -0.48768
      CHANNELS 3 Zrotation Xrotation Yrotation
      JOINT neck
      {
        OFFSET 0 22.1894 -2.19456
        CHANNELS 3 Zrotation Xrotation Yrotation
        JOINT head
        {
          OFFSET -0.24384 7.07133 1.2192
          CHANNELS 3 Zrotation Xrotation Yrotation
          JOINT leftEye
          {
            OFFSET 4.14528 8.04674 8.04672
            CHANNELS 3 Zrotation Xrotation Yrotation
            End Site
            {
              OFFSET 1 0 0
            }
          }
          JOINT rightEye
          {
            OFFSET -3.6576 8.04674 8.04672
            CHANNELS 3 Zrotation Xrotation Yrotation
            End Site
            {
              OFFSET 1 0 0
            }
          }
        }
      }
      JOINT rCollar
      {
        OFFSET -2.68224 19.2634 -4.8768
        CHANNELS 3 Zrotation Xrotation Yrotation
        JOINT rShldr
        {
          OFFSET -8.77824 -1.95073 1.46304
          CHANNELS 3 Zrotation Xrotation Yrotation
          JOINT rForeArm
          {
            OFFSET -28.1742 -1.7115 0.48768
            CHANNELS 3 Zrotation Xrotation Yrotation
            JOINT rHand
            {
              OFFSET -22.5879 0.773209 7.07136
              CHANNELS 3 Zrotation Xrotation Yrotation
              JOINT rThumb1
              {
                OFFSET -1.2192 -0.487915 3.41376
                CHANNELS 3 Zrotation Xrotation Yrotation
                JOINT rThumb2
                {
                  OFFSET -3.37035 -0.52449 3.41376
                  CHANNELS 3 Zrotation Xrotation Yrotation
                  End Site
                  {
                    OFFSET -1.78271 -1.18214 1.43049
                  }
                }
              }
              JOINT rIndex1
              {
                OFFSET -7.75947 0.938293 5.60832
                CHANNELS 3 Zrotation Xrotation Yrotation
                JOINT rIndex2
                {
                  OFFSET -2.54057 -0.884171 1.56538
                  CHANNELS 3 Zrotation Xrotation Yrotation
                  End Site
                  {
                    OFFSET -1.62519 -0.234802 1.16502
                  }
                }
              }
              JOINT rMid1
              {
                OFFSET -8.24714 1.18213 3.41376
                CHANNELS 3 Zrotation Xrotation Yrotation
                JOINT rMid2
                {
                  OFFSET -3.10165 -0.590103 1.0647
                  CHANNELS 3 Zrotation Xrotation Yrotation
                  End Site
                  {
                    OFFSET -2.48547 -0.328903 0.83742
                  }
                }
              }
              JOINT rRing1
              {
                OFFSET -8.82822 0.546677 1.51678
                CHANNELS 3 Zrotation Xrotation Yrotation
                JOINT rRing2
                {
                  OFFSET -2.60934 -0.819778 -0.0198488
                  CHANNELS 3 Zrotation Xrotation Yrotation
                  End Site
                  {
                    OFFSET -2.33842 -0.294052 0.168128
                  }
                }
              }
              JOINT rPinky1
              {
                OFFSET -8.27202 -0.0477905 -0.4584
                CHANNELS 3 Zrotation Xrotation Yrotation
                JOINT rPinky2
                {
                  OFFSET -1.82734 -0.647385 -0.700984
                  CHANNELS 3 Zrotation Xrotation Yrotation
                  End Site
                  {
                    OFFSET -1.69225 -0.51767 -0.607171
                  }
                }
              }
            }
          }
        }
      }
      JOINT lCollar
      {
        OFFSET 2.68224 19.2634 -4.8768
        CHANNELS 3 Zrotation Xrotation Yrotation
        JOINT lShldr
        {
          OFFSET 8.77824 -1.95073 1.46304
          CHANNELS 3 Zrotation Xrotation Yrotation
          JOINT lForeArm
          {
            OFFSET 28.1742 -1.7115 0.48768
            CHANNELS 3 Zrotation Xrotation Yrotation
            JOINT lHand
            {
              OFFSET 22.5879 0.773209 7.07136
              CHANNELS 3 Zrotation Xrotation Yrotation
              JOINT lThumb1
              {
                OFFSET 1.2192 -0.487915 3.41376
                CHANNELS 3 Zrotation Xrotation Yrotation
                JOINT lThumb2
                {
                  OFFSET 3.37035 -0.52449 3.41376
                  CHANNELS 3 Zrotation Xrotation Yrotation
                  End Site
                  {
                    OFFSET 1.78271 -1.18214 1.43049
                  }
                }
              }
              JOINT lIndex1
              {
                OFFSET 7.75947 0.938293 5.60832
                CHANNELS 3 Zrotation Xrotation Yrotation
                JOINT lIndex2
                {
                  OFFSET 2.54057 -0.884171 1.56538
                  CHANNELS 3 Zrotation Xrotation Yrotation
                  End Site
                  {
                    OFFSET 1.62519 -0.234802 1.16502
                  }
                }
              }
              JOINT lMid1
              {
                OFFSET 8.24714 1.18213 3.41376
                CHANNELS 3 Zrotation Xrotation Yrotation
                JOINT lMid2
                {
                  OFFSET 3.10165 -0.590103 1.0647
                  CHANNELS 3 Zrotation Xrotation Yrotation
                  End Site
                  {
                    OFFSET 2.48547 -0.328903 0.83742
                  }
                }
              }
              JOINT lRing1
              {
                OFFSET 8.82822 0.546677 1.51678
                CHANNELS 3 Zrotation Xrotation Yrotation
                JOINT lRing2
                {
                  OFFSET 2.60934 -0.819778 -0.0198488
                  CHANNELS 3 Zrotation Xrotation Yrotation
                  End Site
                  {
                    OFFSET 2.33842 -0.294052 0.168128
                  }
                }
              }
              JOINT lPinky1
              {
                OFFSET 8.27202 -0.0477905 -0.4584
                CHANNELS 3 Zrotation Xrotation Yrotation
                JOINT lPinky2
                {
                  OFFSET 1.82734 -0.647385 -0.700984
                  CHANNELS 3 Zrotation Xrotation Yrotation
                  End Site
                  {
                    OFFSET 1.69225 -0.51767 -0.607171
                  }
                }
              }
            }
          }
        }
      }
    }
  }
  JOINT rButtock
  {
    OFFSET -8.77824 4.35084 1.2192
    CHANNELS 3 Zrotation Xrotation Yrotation
    JOINT rThigh
    {
      OFFSET 0 -1.70687 -2.19456
      CHANNELS 3 Zrotation Xrotation Yrotation
      JOINT rShin
      {
        OFFSET 0 -36.8199 0.73152
        CHANNELS 3 Zrotation Xrotation Yrotation
        JOINT rFoot
        {
          OFFSET 0.73152 -45.1104 -5.12064
          CHANNELS 3 Zrotation Xrotation Yrotation
          End Site
          {
            OFFSET -1.1221 -3.69964 12.103
          }
        }
      }
    }
  }
  JOINT lButtock
  {
    OFFSET 8.77824 4.35084 1.2192
    CHANNELS 3 Zrotation Xrotation Yrotation
    JOINT lThigh
    {
      OFFSET 0 -1.70687 -2.19456
      CHANNELS 3 Zrotation Xrotation Yrotation
      JOINT lShin
      {
        OFFSET 0 -36.8199 0.73152
        CHANNELS 3 Zrotation Xrotation Yrotation
        JOINT lFoot
        {
          OFFSET -0.73152 -45.1104 -5.12064
          CHANNELS 3 Zrotation Xrotation Yrotation
          End Site
          {
            OFFSET 1.1221 -3.69964 12.103
          }
        }
      }
    }
  }
}
MOTION
Frames:	4
Frame Time:	0.00833333
0.0 0.0 0.0 0.0 0.0 0.0 0.0 0.0 0.0 0.0 0.0 0.0 0.0 0.0 0.0 0.0 0.0 0.0 0.0 0.0 0.0 0.0 0.0 0.0 0.0 0.0 0.0 0.0 0.0 0.0 0.0 0.0 0.0 0.0 0.0 0.0 0.0 0.0 0.0 0.0 0.0 0.0 0.0 0.0 0.0 0.0 0.0 0.0 0.0 0.0 0.0 0.0 0.0 0.0 0.0 0.0 0.0 0.0 0.0 0.0 0.0 0.0 0.0 0.0 0.0 0.0 0.0 0.0 0.0 0.0 0.0 0.0 0.0 0.0 0.0 0.0 0.0 0.0 0.0 0.0 0.0 0.0 0.0 0.0 0.0 0.0 0.0 0.0 0.0 0.0 0.0 0.0 0.0 0.0 0.0 0.0 0.0 0.0 0.0 0.0 0.0 0.0 0.0 0.0 0.0 0.0 0.0 0.0 0.0 0.0 0.0 0.0 0.0 0.0 0.0 0.0 0.0 0.0 0.0 0.0 0.0 0.0 0.0 0.0 0.0 0.0 0.0 0.0 0.0 0.0 0.0 0.0
0.5243 47.576800000000006 -1.1594 -13.99636 -48.585464 17.963674 0.947956 4.469709 133.338491 -5.917569 -0.79841 -127.33574 -9.327128 19.178174 -53.731958 36.941115 -4.736067 74.401187 -0.003319 -0.0 2.5e-05 -0.003319 -0.0 2.5e-05 3.199468 -25.923901 -5.089646 74.062546 27.851475 -61.226131 175.554636 -5.282926 36.173158 -149.309162 29.742973 129.290868 71.831346 -48.26316 25.792154 -10.321762 -56.752521 -37.4341 -108.42761 34.160185 91.742307 -155.738351 4.462092 114.587192 -36.035832 51.723085 29.832537 -9.537243 30.509569 7.855562 -145.118989 0.227769 -179.197191 -138.762206 -60.553372 -160.81516 17.606214 61.627523 12.866725 -137.887284 -15.07979 -134.313247 150.168786 21.53506 -155.274793 -84.35905 49.603132 97.81957 -28.875859 15.515511 -5.188909 176.509337 58.297453 -164.918137 -90.437106 -50.940411 -38.665186 52.953461 26.818605 -12.61764 -2.326801 -3.867517 1.259645 -17.290711 -7.494833 1.352376 36.035872 51.723365 -29.831761 176.374819 -42.269985 -142.775275 75.673655 -72.114168 92.829565 -14.728162 0.472405 4.596033 148.275379 22.509681 144.500408 -46.249613 80.020913 10.124231 179.977625 75.750326 0.019743 119.58476 68.369501 -19.251543 -57.848663 11.00281 -84.378001 25.155805 16.46318 136.51286 179.99488 75.74811 0.003946 -148.731238 -10.260512 -106.347615 -86.894638 -10.167786 -168.856988 -59.59586 82.96552 -23.652604
0.8548 47.8784 -1.9459 -13.497947 -48.375458 17.431859 0.083778 7.10108 73.932112 -4.43001 -6.541903 -68.079736 -9.790086 20.237656 -59.997174 38.601338 -1.165529 79.414492 0.002177 0.0 0.002963 0.001438 -0.0 -0.002074 -155.503956 -3.514441 161.838824 114.347051 -17.502973 131.891074 169.448794 25.33801 42.272865 -145.579519 34.564178 125.438817 -176.295365 -13.919728 89.719684 -8.148313 -51.658125 2.576009 -138.492766 4.896387 114.865253 -170.209339 -28.079378 118.128986 -161.520254 -9.304017 143.625429 86.517104 -77.970976 57.80422 -145.119726 0.267186 -179.213607 -154.176514 -12.524623 -177.506647 -124.850329 -29.037313 -122.620282 3.434407 0.851197 -1.381567 158.468542 -30.055544 -166.91974 173.267019 41.395506 127.314101 -133.531399 -34.507659 -131.654609 -171.144112 18.994564 -163.595755 103.200032 36.331467 -60.11119 156.696691 -28.130445 -77.978456 162.918061 -37.929715 -122.62915 153.516961 -3.680017 -118.804913 0.970649 2.779327 -0.55381 42.05997 58.55956 -36.105226 -0.00594 1.771224 -0.557514 -11.295131 -23.581602 2.840042 152.875053 39.992144 148.058169 -1.945755 0.368427 1.748866 -0.000641 -0.00038 0.000825 -20.01697 2.412967 -0.0 -8.774307 55.324575 -93.451548 111.900032 51.371355 -10.024551 179.997526 75.7505 0.002552 -150.707242 -7.99113 -0.0 -39.227482 81.06998 -69.880835 -25.542199 70.034838 102.463567
1.2210999999999999 48.1925 -2.9012 -13.048385 -48.321814 17.02006 -0.303925 7.176126 80.399578 -4.905432 -5.879742 -74.595172 -10.271119 24.97323 -87.023617 40.950114 15.557345 100.801927 0.000936 0.0 0.002353 0.00102 0.0 0.005002 -85.537643 68.181754 88.688785 118.464555 -37.167496 56.911295 -28.857875 12.557895 120.81693 -5.094458 -66.684088 -13.972141 -1.758227 1.725673 0.296574 -66.693692 27.280028 61.37696 -108.428398 34.160278 91.74201 -1.116997 12.8515 -3.949976 -167.376124 -28.008269 145.269507 15.995424 -37.032112 -0.40825 0.000116 -0.018457 -0.006251 9.354365 11.535021 1.490367 15.294604 53.352867 12.048262 1.938848 0.973342 -0.170853 155.577522 -3.99958 -161.941182 -8.227684 -2.112183 50.0997 -8.210524 -60.213787 50.305496 -113.181154 -58.027896 -111.860027 171.706272 -9.388359 -89.948751 145.202514 7.227114 -74.419614 -19.568658 -35.040282 5.986111 -115.061202 -63.432455 -55.865531 82.840306 61.112196 -74.532295 4.838565 21.318187 -4.611956 5.3e-05 0.064079 -0.018068 75.672319 78.817178 -89.069007 -27.134636 80.263659 -10.025944 -30.700721 75.089516 -2.82508 -179.986554 75.749956 -0.0092 123.538298 64.106996 146.298565 51.536967 -6.572076 -59.873346 117.193822 -74.715637 33.129913 0.003113 0.000174 0.003113 78.69566 -61.312085 77.770536 50.168084 73.783572 27.301464 -143.088894 8.959861 68.478045
